<?xml version="1.0" standalone="no"?>
<!DOCTYPE svg PUBLIC "-//W3C//DTD SVG 20010904//EN"
 "http://www.w3.org/TR/2001/REC-SVG-20010904/DTD/svg10.dtd">
<svg version="1.0" xmlns="http://www.w3.org/2000/svg"
 width="458.000000pt" height="458.000000pt" viewBox="0 0 458.000000 458.000000"
 preserveAspectRatio="xMidYMid meet">
<metadata>
Created by potrace 1.14, written by Peter Selinger 2001-2017
</metadata>
<g transform="translate(0.000000,458.000000) scale(0.100000,-0.100000)"
fill="#000000" stroke="none">
<path d="M0 2290 l0 -1840 2290 0 2290 0 0 1840 0 1840 -2290 0 -2290 0 0
-1840z m612 580 c9 -42 19 -109 20 -130 0 -8 11 -66 24 -128 13 -63 24 -120
24 -128 0 -10 -13 -14 -45 -14 -41 0 -45 -2 -45 -25 0 -23 4 -25 40 -25 34 0
42 4 50 25 13 34 62 36 56 3 -2 -16 -11 -24 -29 -26 l-27 -3 0 -100 c0 -59 4
-99 10 -99 6 0 10 -23 10 -51 l0 -50 33 3 32 3 3 78 c2 59 6 77 17 77 12 0 15
15 15 69 0 61 3 70 20 76 23 7 27 45 5 45 -20 0 -21 -5 24 198 22 97 43 192
46 210 l7 32 113 0 c63 0 116 -3 119 -8 2 -4 -16 -88 -40 -187 -25 -99 -46
-184 -48 -190 -1 -5 -7 -26 -14 -45 -20 -64 -25 -104 -26 -225 l-1 -120 -32
-3 c-25 -2 -33 -8 -33 -23 0 -14 7 -19 25 -19 24 0 25 -3 25 -54 l0 -55 -37
-3 -38 -3 -3 -95 c-2 -60 -7 -97 -15 -102 -7 -4 -69 -8 -140 -8 l-127 0 -10
26 c-16 41 -12 64 9 64 33 0 51 11 51 32 0 18 -5 20 -44 16 l-44 -5 -21 86
c-89 367 -140 587 -147 649 -3 18 -16 80 -30 139 -14 58 -22 113 -20 120 4 11
30 13 118 11 l112 -3 8 -35z m1024 19 c66 -17 128 -79 148 -151 26 -92 17
-250 -18 -303 -25 -39 -21 -102 11 -139 14 -17 32 -30 39 -28 9 2 13 -22 16
-95 2 -54 2 -104 0 -110 -3 -8 -23 -13 -53 -13 -37 0 -49 -4 -49 -15 0 -12 10
-13 48 -9 26 3 56 10 67 14 11 5 31 10 45 12 24 3 25 5 28 96 l3 92 50 0 c36
0 49 4 46 13 -2 7 -22 12 -50 11 l-47 0 0 324 0 324 228 -4 c261 -5 305 -14
364 -75 55 -56 70 -102 76 -223 5 -113 -11 -205 -47 -265 -15 -26 -23 -30 -59
-30 -23 0 -43 -3 -43 -7 -7 -41 -5 -42 59 -39 l63 2 -3 -138 -3 -138 -37 -3
c-29 -2 -38 -8 -38 -21 0 -16 7 -17 51 -13 37 3 54 1 60 -9 11 -18 11 -130 1
-147 -6 -9 -37 -12 -118 -10 l-109 3 -3 128 -3 128 -47 -2 -47 -3 -3 87 -3 87
-74 0 -75 0 0 -146 c0 -126 2 -145 15 -140 13 4 15 -8 15 -80 l0 -85 -107 3
-108 3 -3 123 -3 122 -39 0 -39 0 -3 -82 -3 -83 -37 -3 c-29 -2 -37 -8 -40
-25 -3 -20 -10 -22 -71 -25 -48 -2 -70 -7 -74 -17 -8 -22 -241 -22 -249 0 -4
10 -20 15 -49 15 -42 0 -44 1 -47 33 -3 31 -5 32 -45 31 l-43 -1 0 54 c0 51 1
53 28 54 l27 2 -27 4 c-25 4 -28 8 -28 44 l0 39 100 0 100 0 0 -56 c0 -54 1
-56 23 -50 12 3 57 6 100 6 l77 0 0 140 0 140 26 -6 c20 -5 25 -4 19 5 -5 9
-37 12 -109 10 l-101 -3 -3 52 c-2 29 -8 52 -13 52 -5 0 -9 20 -8 45 l3 45 40
1 c107 2 142 22 152 85 19 129 -19 202 -100 191 -50 -7 -81 -40 -91 -97 -4
-23 -12 -43 -19 -46 -7 -3 -48 -1 -92 3 -95 10 -96 12 -65 134 29 114 67 156
171 186 51 15 171 11 246 -8z m1595 11 c1 -5 3 -19 4 -30 1 -11 3 -168 4 -349
l1 -330 38 -3 37 -3 3 -74 c3 -85 -3 -94 -60 -85 -30 4 -38 2 -38 -9 0 -8 7
-18 16 -21 15 -6 16 -19 9 -109 -4 -58 -12 -105 -18 -109 -14 -9 -123 -10
-154 -2 -21 6 -23 12 -25 113 l-3 106 -70 0 c-38 1 -74 -2 -80 -6 -13 -9 -255
-18 -259 -10 -2 3 0 15 4 26 5 14 20 22 51 27 l44 6 -47 -1 -48 -2 0 38 c0 27
22 87 75 199 41 88 75 164 75 169 0 5 -27 9 -61 9 -52 0 -60 2 -57 18 3 14 15
17 72 18 55 0 71 4 82 19 8 10 14 24 14 31 0 7 25 66 56 131 31 65 69 146 85
181 l29 62 110 0 c66 0 111 -4 111 -10z m370 -50 c3 -30 10 -64 15 -75 27 -59
117 -215 124 -215 5 0 34 48 66 108 48 89 58 118 63 172 l6 65 105 0 105 0 -2
-55 c-4 -90 -21 -140 -83 -240 -151 -243 -145 -231 -127 -261 15 -28 15 -28
-16 -31 -49 -5 -46 -28 4 -28 48 0 49 -1 119 -121 46 -80 50 -91 50 -153 0
-50 4 -68 15 -72 10 -4 15 -20 15 -45 0 -38 -1 -39 -35 -39 -19 0 -35 -4 -35
-10 0 -5 10 -10 23 -10 32 0 51 -15 43 -35 -5 -14 -21 -16 -123 -13 l-117 3 3
142 c2 121 0 144 -13 149 -8 3 -27 26 -41 50 -14 24 -30 44 -35 44 -5 0 -21
-22 -35 -50 -20 -39 -25 -64 -25 -119 l0 -70 -32 -3 -33 -3 -5 -75 -5 -75 -40
-7 c-50 -9 -153 -10 -183 -2 -22 6 -23 10 -20 98 3 86 4 91 26 94 15 2 22 11
23 28 1 13 3 29 4 34 1 6 3 28 4 50 l1 40 60 0 c47 0 60 3 60 15 0 9 -9 15
-25 15 -23 0 -25 3 -25 50 0 28 0 53 0 58 0 4 17 8 37 10 36 3 73 29 73 52 0
5 4 10 9 10 5 0 12 11 15 24 6 24 -41 102 -161 268 -47 65 -70 123 -79 195
-10 95 -12 94 113 91 l108 -3 6 -55z"/>
<path d="M2140 2567 l0 -165 38 4 c157 16 152 14 174 45 15 20 34 31 60 35 46
8 53 34 9 34 -17 0 -34 -8 -42 -19 -11 -15 -28 -21 -69 -23 -50 -2 -55 0 -58
20 -4 25 -5 24 60 26 26 1 51 6 55 10 11 10 6 107 -7 140 -12 34 -40 44 -140
52 l-80 6 0 -165z"/>
<path d="M3005 2500 c-6 -18 -15 -20 -85 -20 -80 0 -110 -6 -110 -20 0 -16
165 -5 190 13 14 9 21 17 16 17 -5 0 -3 7 4 15 8 9 8 15 2 15 -6 0 -14 -9 -17
-20z"/>
<path d="M3022 2473 c-6 -2 -10 -9 -6 -14 3 -5 -6 -9 -20 -9 -14 0 -26 -6 -26
-12 0 -7 -28 -71 -63 -141 -34 -70 -62 -129 -61 -130 7 -7 204 6 204 14 0 5
-7 9 -15 9 -13 0 -15 19 -13 133 3 124 4 132 23 133 11 1 26 2 33 3 7 1 10 6
7 11 -6 10 -41 12 -63 3z"/>
</g>
</svg>
